<svg xmlns="http://www.w3.org/2000/svg" version="1.1" xmlns:xlink="http://www.w3.org/1999/xlink" width="1000" height="1000"><metadata><rdf:RDF xmlns:rdf="http://www.w3.org/1999/02/22-rdf-syntax-ns#" xmlns:dc="http://purl.org/dc/elements/1.1/"><rdf:Description><dc:creator>RealFaviconGenerator</dc:creator><dc:source>https://realfavicongenerator.net</dc:source></rdf:Description></rdf:RDF></metadata><g clip-path="url(#SvgjsClipPath1275)"><rect width="1000" height="1000" fill="#38a14f"></rect><g transform="matrix(3.5,0,0,3.5,150,150)"><svg xmlns="http://www.w3.org/2000/svg" version="1.1" xmlns:xlink="http://www.w3.org/1999/xlink" viewBox="0 0 200 200" width="200" height="200"><rect width="200" height="200" fill="url('#gradient')"></rect><defs><linearGradient id="gradient" gradientTransform="rotate(45 0.5 0.5)"><stop offset="0%" stop-color="#38a14f"></stop><stop offset="100%" stop-color="#38a14f"></stop></linearGradient><clipPath id="SvgjsClipPath1275"><rect width="1000" height="1000" x="0" y="0" rx="250" ry="250"></rect></clipPath></defs><g><g fill="#ffffff" transform="matrix(7.087947882736156,0,0,7.087947882736156,10.55290583640047,150.36424191999902)" stroke="#ffffff" stroke-width="0"><path d="M8.41-3.78L8.41-3.78Q8.41-4.53 7.88-4.95Q7.34-5.37 6.01-5.82Q4.67-6.27 3.82-6.69L3.82-6.69Q1.05-8.05 1.05-10.42L1.05-10.42Q1.05-11.60 1.74-12.50Q2.43-13.41 3.69-13.91Q4.95-14.41 6.52-14.41L6.52-14.41Q8.06-14.41 9.27-13.87Q10.49-13.32 11.16-12.31Q11.84-11.30 11.84-10L11.84-10L8.42-10Q8.42-10.87 7.89-11.35Q7.35-11.83 6.45-11.83L6.45-11.83Q5.53-11.83 5.00-11.42Q4.46-11.02 4.46-10.39L4.46-10.39Q4.46-9.84 5.05-9.40Q5.63-8.96 7.11-8.48Q8.58-8.01 9.53-7.46L9.53-7.46Q11.84-6.13 11.84-3.80L11.84-3.80Q11.84-1.93 10.43-0.87Q9.02 0.20 6.57 0.20L6.57 0.20Q4.84 0.20 3.44-0.42Q2.04-1.04 1.33-2.12Q0.63-3.20 0.63-4.61L0.63-4.61L4.06-4.61Q4.06-3.47 4.65-2.92Q5.24-2.38 6.57-2.38L6.57-2.38Q7.42-2.38 7.92-2.75Q8.41-3.12 8.41-3.78ZM19.37 0L13.59 0L13.59-14.22L18.70-14.22Q21.45-14.22 22.88-13.21Q24.31-12.21 24.31-10.29L24.31-10.29Q24.31-9.19 23.80-8.41Q23.29-7.63 22.30-7.26L22.30-7.26Q23.42-6.96 24.01-6.16Q24.61-5.36 24.61-4.21L24.61-4.21Q24.61-2.12 23.29-1.07Q21.96-0.02 19.37 0L19.37 0ZM19.42-6.04L17.02-6.04L17.02-2.64L19.27-2.64Q20.20-2.64 20.69-3.06Q21.19-3.49 21.19-4.26L21.19-4.26Q21.19-6.04 19.42-6.04L19.42-6.04ZM17.02-11.57L17.02-8.29L18.81-8.29Q19.93-8.30 20.41-8.70Q20.89-9.10 20.89-9.88L20.89-9.88Q20.89-10.78 20.37-11.18Q19.85-11.57 18.70-11.57L18.70-11.57L17.02-11.57Z"></path></g></g></svg></g></g></svg>